<!-- icon666.com - MILLIONS vector ICONS FREE --><svg id="Capa_1" enable-background="new 0 0 512 512" viewBox="0 0 512 512" xmlns="http://www.w3.org/2000/svg"><g><path d="m425.131 394.608-11.059-12.372c-5.752-6.433-15.703-7.033-22.185-1.338l-28.346 24.902-11.849-9.379c-.028-.022-.057-.044-.085-.065-6.551-5.035-15.694-4.234-21.267 1.864l-11.419 12.488c-2.922 3.196-4.379 7.336-4.103 11.657.275 4.322 2.248 8.243 5.55 11.037l35.624 30.198c.001.002.003.003.004.004 2.157 1.826 4.839 2.736 7.52 2.736 2.766 0 5.53-.97 7.714-2.901l52.589-46.491c3.169-2.804 5.052-6.673 5.3-10.897.248-4.223-1.168-8.286-3.988-11.443zm-11.248 11.104-50.411 44.565-33.407-28.319c-.169-.143-.262-.327-.276-.548s.055-.415.204-.579l11.419-12.489c.155-.17.365-.257.577-.257.159 0 .319.049.458.149l14.027 11.103c.029.023.059.045.088.067 4.395 3.376 10.61 3.173 14.775-.486l30.45-26.751c.322-.285.815-.253 1.102.065l11.058 12.37c.145.162.211.354.198.569-.013.217-.101.399-.262.541z" fill="#000000" style="fill: rgb(92, 217, 38);"></path><path d="m429.167 351.804v-327.738c0-13.27-10.797-24.066-24.067-24.066h-281.633c-13.271 0-24.067 10.796-24.067 24.066v9.066h-25.633c-13.271.001-24.067 10.798-24.067 24.068v62.523c0 4.142 3.357 7.5 7.5 7.5s7.5-3.358 7.5-7.5v-62.523c0-5 4.067-9.067 9.066-9.067h207.867v75.334c0 13.271 10.796 24.066 24.066 24.066h75.333v184.253c-2.982-.299-6.007-.453-9.066-.453-5.996 0-11.855.593-17.527 1.713.104-.725.177-1.46.177-2.213v-17.133c0-8.547-6.953-15.5-15.5-15.5h-17.133c-8.547 0-15.5 6.953-15.5 15.5v17.133c0 8.547 6.953 15.5 15.5 15.5h.193c-15.024 9.963-26.907 24.294-33.827 41.169v-7.535c0-8.547-6.953-15.5-15.5-15.5h-166.233c-8.547 0-15.5 6.953-15.5 15.5v17.133c0 8.547 6.953 15.5 15.5 15.5h16.851c4.143 0 7.5-3.357 7.5-7.5s-3.357-7.5-7.5-7.5h-16.851c-.275 0-.5-.225-.5-.5v-17.133c0-.275.225-.5.5-.5h166.234c.275 0 .5.225.5.5v17.133c0 .275-.225.5-.5.5h-114.383c-4.143 0-7.5 3.357-7.5 7.5s3.357 7.5 7.5 7.5h114.383c3.647 0 6.997-1.274 9.647-3.389-.564 4.073-.863 8.23-.863 12.456 0 22.421 8.214 42.958 21.787 58.767h-229.654c-4.999 0-9.066-4.067-9.066-9.067v-316.644c0-4.143-3.357-7.5-7.5-7.5s-7.5 3.357-7.5 7.5v316.643c0 13.27 10.796 24.067 24.066 24.067h246.118c14.728 10.43 32.701 16.567 52.082 16.567 49.81 0 90.333-40.523 90.333-90.333 0-28.123-12.92-53.283-33.133-69.863zm-107.684-20.971v-17.133c0-.275.225-.5.5-.5h17.133c.275 0 .5.225.5.5v17.133c0 .275-.225.5-.5.5h-17.133c-.275 0-.5-.225-.5-.5zm-15.783-198.3c-4.999 0-9.066-4.067-9.066-9.066v-64.728l73.793 73.794zm90.316 7.463c-.01-1.938-.754-3.841-2.179-5.266l-99.399-99.4c-1.426-1.426-3.33-2.171-5.268-2.18-.01-.004-.035-.016-.035-.016h-174.735v-9.066c0-4.999 4.067-9.066 9.066-9.066h281.634c5 0 9.067 4.067 9.067 9.066v317.751c-5.711-3.03-11.783-5.466-18.134-7.224v-194.56c0-.002-.012-.028-.017-.039zm-24.049 357.004c-41.539 0-75.333-33.794-75.333-75.333s33.794-75.334 75.333-75.334 75.333 33.795 75.333 75.334-33.794 75.333-75.333 75.333z" fill="#000000" style="fill: rgb(92, 217, 38);"></path><path d="m91.116 330.833c0 8.547 6.953 15.5 15.5 15.5h166.234c8.547 0 15.5-6.953 15.5-15.5v-17.133c0-8.547-6.953-15.5-15.5-15.5h-166.234c-8.547 0-15.5 6.953-15.5 15.5zm15-17.133c0-.275.225-.5.5-.5h166.234c.275 0 .5.225.5.5v17.133c0 .275-.225.5-.5.5h-166.234c-.275 0-.5-.225-.5-.5z" fill="#000000" style="fill: rgb(92, 217, 38);"></path><path d="m91.116 264.566c0 8.547 6.953 15.5 15.5 15.5h166.234c8.547 0 15.5-6.953 15.5-15.5v-17.133c0-8.547-6.953-15.5-15.5-15.5h-166.234c-8.547 0-15.5 6.953-15.5 15.5zm15-17.132c0-.275.225-.5.5-.5h166.234c.275 0 .5.225.5.5v17.133c0 .275-.225.5-.5.5h-166.234c-.275 0-.5-.225-.5-.5z" fill="#000000" style="fill: rgb(92, 217, 38);"></path><path d="m91.116 198.3c0 8.547 6.953 15.5 15.5 15.5h166.234c8.547 0 15.5-6.953 15.5-15.5v-17.133c0-8.547-6.953-15.5-15.5-15.5h-166.234c-8.547 0-15.5 6.953-15.5 15.5zm15-17.133c0-.275.225-.5.5-.5h166.234c.275 0 .5.225.5.5v17.133c0 .275-.225.5-.5.5h-166.234c-.275 0-.5-.225-.5-.5z" fill="#000000" style="fill: rgb(92, 217, 38);"></path><path d="m321.983 213.8h17.133c8.547 0 15.5-6.953 15.5-15.5v-17.133c0-8.547-6.953-15.5-15.5-15.5h-17.133c-8.547 0-15.5 6.953-15.5 15.5v17.133c0 8.547 6.953 15.5 15.5 15.5zm-.5-32.633c0-.275.225-.5.5-.5h17.133c.275 0 .5.225.5.5v17.133c0 .275-.225.5-.5.5h-17.133c-.275 0-.5-.225-.5-.5z" fill="#000000" style="fill: rgb(92, 217, 38);"></path><path d="m106.616 114.4h50.268c8.547 0 15.5-6.953 15.5-15.5v-17.133c0-8.547-6.953-15.5-15.5-15.5h-50.268c-8.547 0-15.5 6.953-15.5 15.5v17.133c0 8.547 6.953 15.5 15.5 15.5zm-.5-32.633c0-.275.225-.5.5-.5h50.268c.275 0 .5.225.5.5v17.133c0 .275-.225.5-.5.5h-50.268c-.275 0-.5-.225-.5-.5z" fill="#000000" style="fill: rgb(92, 217, 38);"></path><path d="m306.483 264.566c0 8.547 6.953 15.5 15.5 15.5h17.133c8.547 0 15.5-6.953 15.5-15.5v-17.133c0-8.547-6.953-15.5-15.5-15.5h-17.133c-8.547 0-15.5 6.953-15.5 15.5zm15-17.132c0-.275.225-.5.5-.5h17.133c.275 0 .5.225.5.5v17.133c0 .275-.225.5-.5.5h-17.133c-.275 0-.5-.225-.5-.5z" fill="#000000" style="fill: rgb(92, 217, 38);"></path></g></svg>