<svg width="23" height="24" viewBox="0 0 23 24" fill="none" xmlns="http://www.w3.org/2000/svg">
<path d="M8.22498 23.375C7.22668 23.3702 6.2393 23.1669 5.32032 22.7769C4.40134 22.3869 3.56911 21.818 2.87206 21.1033C2.18025 20.4476 1.62452 19.6619 1.23668 18.7913C0.848841 17.9206 0.636499 16.9819 0.611808 16.0291C0.587117 15.0762 0.750561 14.1278 1.09279 13.2382C1.43501 12.3486 1.9493 11.5352 2.60623 10.8446L11.4996 1.86665C11.9745 1.39259 12.5406 1.0197 13.1636 0.770486C13.7866 0.521271 14.4537 0.400903 15.1246 0.416651C15.8432 0.419098 16.5541 0.564598 17.2159 0.844666C17.8777 1.12473 18.4771 1.53376 18.9791 2.0479C19.9784 3.01002 20.5579 4.32744 20.5919 5.7142C20.6258 7.10095 20.1114 8.44514 19.1604 9.45498L10.2187 18.4329C9.93233 18.7212 9.59153 18.9498 9.21608 19.1054C8.84064 19.261 8.43804 19.3404 8.03165 19.3391C7.59263 19.3397 7.15794 19.2524 6.75325 19.0822C6.34856 18.912 5.98206 18.6625 5.6754 18.3483C5.06244 17.7549 4.70846 16.9435 4.69036 16.0905C4.67226 15.2375 4.9915 14.4118 5.57873 13.7929L13.8316 5.50373C14.0665 5.34774 14.3486 5.2788 14.6289 5.30885C14.9093 5.3389 15.1703 5.46604 15.3668 5.66826C15.5633 5.87048 15.6828 6.13505 15.7048 6.41616C15.7268 6.69726 15.6497 6.97719 15.4871 7.20748L7.23415 15.4966C7.09653 15.6624 7.02954 15.8757 7.04762 16.0904C7.06571 16.3051 7.1674 16.5041 7.33081 16.6446C7.50084 16.8158 7.73005 16.9152 7.97123 16.9225C8.06057 16.9238 8.14927 16.9073 8.23223 16.8742C8.31519 16.841 8.39075 16.7917 8.45456 16.7292L17.3841 7.75123C17.8854 7.19441 18.1473 6.46271 18.1134 5.71429C18.0795 4.96587 17.7524 4.26086 17.2029 3.75165C16.6925 3.22172 15.9984 2.90758 15.2634 2.87387C14.5284 2.84015 13.8084 3.08943 13.2516 3.5704L4.32206 12.5C3.88784 12.9664 3.55013 13.514 3.32836 14.1114C3.10659 14.7088 3.00514 15.3442 3.02985 15.9809C3.05456 16.6177 3.20493 17.2432 3.47232 17.8217C3.73971 18.4001 4.11884 18.9199 4.5879 19.3512C5.05827 19.8388 5.6211 20.2278 6.24351 20.4955C6.86592 20.7631 7.53541 20.904 8.2129 20.91C8.79703 20.9147 9.37634 20.804 9.91756 20.5842C10.4588 20.3644 10.9512 20.0398 11.3666 19.6291L20.2962 10.6512C20.4081 10.5386 20.5411 10.449 20.6875 10.3878C20.834 10.3265 20.9911 10.2947 21.1499 10.2941C21.3086 10.2935 21.466 10.3243 21.6129 10.3845C21.7598 10.4447 21.8934 10.5333 22.006 10.6452C22.1187 10.7571 22.2082 10.89 22.2695 11.0365C22.3308 11.183 22.3626 11.3401 22.3632 11.4988C22.3637 11.6576 22.333 11.8149 22.2728 11.9618C22.2125 12.1087 22.1239 12.2423 22.0121 12.355L13.0825 21.3329C12.4485 21.9781 11.6926 22.4909 10.8587 22.8415C10.0248 23.192 9.12956 23.3734 8.22498 23.375Z" fill="#A8ADB8"/>
</svg>
