<!-- icon666.com - MILLIONS vector ICONS FREE --><svg id="Layer_1" enable-background="new 0 0 24 24" viewBox="0 0 24 24" xmlns="http://www.w3.org/2000/svg"><g><path d="m21.452 7.5h-1.452v-1.452c0-.854-.694-1.548-1.548-1.548h-15.904c-.854 0-1.548.694-1.548 1.548v8.903c0 .855.694 1.549 1.548 1.549h1.452v1.452c0 .854.694 1.548 1.548 1.548h15.903c.854 0 1.548-.694 1.548-1.548v-8.904c.001-.854-.693-1.548-1.547-1.548zm-19.452 7.452v-8.904c0-.302.246-.548.548-.548h15.903c.303 0 .549.246.549.548v8.903c0 .302-.246.548-.548.548h-15.904c-.302.001-.548-.245-.548-.547zm20 3c0 .302-.246.548-.548.548h-15.904c-.302 0-.548-.246-.548-.548v-1.452h13.452c.854 0 1.548-.694 1.548-1.548v-6.452h1.452c.302 0 .548.246.548.548z" fill="#000000" style="fill: rgb(254, 102, 55);"></path><path d="m15.5 8.5h.5v.5c0 .276.224.5.5.5s.5-.224.5-.5v-.5h.5c.276 0 .5-.224.5-.5s-.224-.5-.5-.5h-.5v-.5c0-.276-.224-.5-.5-.5s-.5.224-.5.5v.5h-.5c-.276 0-.5.224-.5.5s.224.5.5.5z" fill="#000000" style="fill: rgb(254, 102, 55);"></path><path d="m13 14c0-.274-.226-.5-.5-.5h-9c-.274 0-.5.226-.5.5s.226.5.5.5h9c.274 0 .5-.226.5-.5z" fill="#000000" style="fill: rgb(254, 102, 55);"></path><path d="m14.5 14.5h3c.276 0 .5-.224.5-.5s-.224-.5-.5-.5h-3c-.276 0-.5.224-.5.5s.224.5.5.5z" fill="#000000" style="fill: rgb(254, 102, 55);"></path><path d="m3.5 11.5h4c.276 0 .5-.224.5-.5v-4c0-.276-.224-.5-.5-.5h-4c-.276 0-.5.224-.5.5v4c0 .276.224.5.5.5zm.5-4h3v3h-3z" fill="#000000" style="fill: rgb(254, 102, 55);"></path><path d="m9.5 7.5h2c.276 0 .5-.224.5-.5s-.224-.5-.5-.5h-2c-.276 0-.5.224-.5.5s.224.5.5.5z" fill="#000000" style="fill: rgb(254, 102, 55);"></path><path d="m9.5 11.5h4c.276 0 .5-.224.5-.5s-.224-.5-.5-.5h-4c-.276 0-.5.224-.5.5s.224.5.5.5z" fill="#000000" style="fill: rgb(254, 102, 55);"></path><path d="m9.5 9.5h4c.276 0 .5-.224.5-.5s-.224-.5-.5-.5h-4c-.276 0-.5.224-.5.5s.224.5.5.5z" fill="#000000" style="fill: rgb(254, 102, 55);"></path></g></svg>