<svg width="18" height="11" viewBox="0 0 18 11" fill="none" xmlns="http://www.w3.org/2000/svg">
<path d="M6.73388 5.5C6.73388 5.93512 6.96435 6.35242 7.37458 6.6601C7.78482 6.96777 8.34122 7.14062 8.92138 7.14062C9.50154 7.14062 10.0579 6.96777 10.4682 6.6601C10.8784 6.35242 11.1089 5.93512 11.1089 5.5C11.1089 5.06488 10.8784 4.64758 10.4682 4.3399C10.0579 4.03223 9.50154 3.85938 8.92138 3.85938C8.34122 3.85938 7.78482 4.03223 7.37458 4.3399C6.96435 4.64758 6.73388 5.06488 6.73388 5.5ZM17.4018 5.12207C15.5503 2.19678 12.7515 0.724609 8.9995 0.724609C5.2456 0.724609 2.44872 2.19678 0.597159 5.12354C0.522892 5.24148 0.484375 5.3703 0.484375 5.50073C0.484375 5.63117 0.522892 5.75998 0.597159 5.87793C2.44872 8.80322 5.24755 10.2754 8.9995 10.2754C12.7534 10.2754 15.5503 8.80322 17.4018 5.87646C17.5522 5.63916 17.5522 5.36377 17.4018 5.12207ZM8.92138 8.07812C7.02294 8.07812 5.48388 6.92383 5.48388 5.5C5.48388 4.07617 7.02294 2.92188 8.92138 2.92188C10.8198 2.92188 12.3589 4.07617 12.3589 5.5C12.3589 6.92383 10.8198 8.07812 8.92138 8.07812Z" fill="#2A5885" fill-opacity="0.6"/>
</svg>
