<svg width="80" height="80" viewBox="0 0 80 80" fill="none" xmlns="http://www.w3.org/2000/svg">
<circle cx="39.5" cy="40.5" r="37.5" fill="#FE6637"/>
<path d="M62.3052 7.81075L62.2907 7.80347L40.571 29.5231L62.3052 7.81075ZM62.3052 7.81075L62.5603 7.54113M62.3052 7.81075L62.5603 7.54113M62.5603 7.54113C63.2032 6.86139 63.9759 6.31744 64.8326 5.94144C65.6894 5.56544 66.6128 5.36501 67.5484 5.352C68.4839 5.33898 69.4126 5.51366 70.2795 5.86569C71.1464 6.21773 71.9339 6.73998 72.5955 7.40157C73.2571 8.06317 73.7793 8.85068 74.1314 9.71756C74.4834 10.5844 74.6581 11.5131 74.6451 12.4487C74.632 13.3842 74.4316 14.3076 74.0556 15.1644C73.6796 16.0212 73.1357 16.7939 72.4559 17.4368L72.4558 17.4367M62.5603 7.54113L72.4558 17.4367M72.4558 17.4367L72.446 17.4465M72.4558 17.4367L72.446 17.4465M72.446 17.4465L50.4714 39.421C50.3957 39.4965 50.3357 39.5862 50.2947 39.6849C50.2538 39.7836 50.2327 39.8894 50.2327 39.9963C50.2327 40.1032 50.2538 40.209 50.2947 40.3077C50.3357 40.4064 50.3957 40.4961 50.4714 40.5715L72.4459 62.5461L72.4489 62.549M72.446 17.4465L72.4489 62.549M72.4489 62.549C73.1077 63.197 73.6316 63.969 73.9905 64.8205C74.3495 65.672 74.5363 66.5861 74.5401 67.5102C74.544 68.4342 74.3649 69.3499 74.0131 70.2043C73.6613 71.0588 73.1439 71.8352 72.4905 72.4886C71.8372 73.1421 71.061 73.6598 70.2066 74.0118C69.3522 74.3637 68.4366 74.5431 67.5125 74.5394C66.5885 74.5358 65.6743 74.3492 64.8227 73.9905C63.9711 73.6317 63.199 73.108 62.5509 72.4493L62.5481 72.4465L40.5735 50.4719M72.4489 62.549L40.5735 50.4719M40.5735 50.4719C40.5734 50.4718 40.5732 50.4716 40.5731 50.4715L40.5735 50.4719ZM29.6993 40.3102C29.6584 40.4087 29.5985 40.4982 29.5231 40.5736L29.6993 40.3102ZM29.6993 40.3102C29.7402 40.2115 29.7613 40.1057 29.7613 39.9988M29.6993 40.3102L29.7613 39.9988M29.7613 39.9988C29.7613 39.8919 29.7402 39.7861 29.6993 39.6874M29.7613 39.9988L29.6993 39.6874M29.6993 39.6874C29.6584 39.5889 29.5985 39.4994 29.5231 39.424M29.6993 39.6874L29.5231 39.424M29.5231 39.424L29.5226 39.4235M29.5231 39.424L29.5226 39.4235M29.5226 39.4235L7.55089 17.4518C7.55042 17.4514 7.54996 17.4509 7.5495 17.4504C6.25512 16.1344 5.53295 14.3603 5.54025 12.5143C5.54755 10.6677 6.28425 8.89873 7.58986 7.59281C8.89548 6.28688 10.6642 5.54977 12.5109 5.54203C14.3568 5.5343 16.1311 6.25603 17.4474 7.55008C17.4479 7.55056 17.4484 7.55103 17.4489 7.5515L39.4205 29.5231L29.5226 39.4235ZM39.6844 29.6998C39.5858 29.6589 39.4963 29.5991 39.421 29.5236L39.6844 29.6998ZM39.6844 29.6998C39.7831 29.7408 39.8889 29.7619 39.9958 29.7619M39.6844 29.6998L39.9958 29.7619M39.9958 29.7619C40.1026 29.7619 40.2085 29.7408 40.3072 29.6998M39.9958 29.7619L40.3072 29.6998M40.3072 29.6998C40.4057 29.6589 40.4952 29.5991 40.5706 29.5236L40.3072 29.6998ZM39.423 50.4719L17.4484 72.4465L17.4455 72.4494C16.7976 73.1082 16.0256 73.6322 15.1741 73.9911C14.3226 74.35 13.4084 74.5368 12.4844 74.5407C11.5604 74.5445 10.6447 74.3654 9.79023 74.0136C8.93576 73.6619 8.15939 73.1444 7.50591 72.4911C6.85244 71.8377 6.33478 71.0615 5.9828 70.2071C5.63081 69.3527 5.45148 68.4371 5.45513 67.5131C5.45879 66.589 5.64536 65.6748 6.00408 64.8233C6.36281 63.9717 6.88659 63.1996 7.54522 62.5514L7.54806 62.5486L29.5226 40.574L39.423 50.4719Z" fill="white" stroke="#FE6637"/>
</svg>
