<svg width="24" height="30" viewBox="0 0 24 30" fill="none" xmlns="http://www.w3.org/2000/svg">
<path d="M23.25 8.4375V26.25C23.25 27.2446 22.8549 28.1984 22.1516 28.9016C21.4484 29.6049 20.4946 30 19.5 30H4.5C3.50544 30 2.55161 29.6049 1.84835 28.9016C1.14509 28.1984 0.75 27.2446 0.75 26.25V3.75C0.75 2.75544 1.14509 1.80161 1.84835 1.09835C2.55161 0.395088 3.50544 0 4.5 0L14.8125 0L23.25 8.4375ZM17.625 8.4375C16.8791 8.4375 16.1637 8.14118 15.6363 7.61374C15.1088 7.08629 14.8125 6.37092 14.8125 5.625V1.875H4.5C4.00272 1.875 3.52581 2.07254 3.17417 2.42417C2.82254 2.77581 2.625 3.25272 2.625 3.75V26.25C2.625 26.7473 2.82254 27.2242 3.17417 27.5758C3.52581 27.9275 4.00272 28.125 4.5 28.125H19.5C19.9973 28.125 20.4742 27.9275 20.8258 27.5758C21.1775 27.2242 21.375 26.7473 21.375 26.25V8.4375H17.625Z" fill="#FE6637"/>
<path d="M4.5 12.1875C4.5 11.9389 4.59877 11.7004 4.77459 11.5246C4.9504 11.3488 5.18886 11.25 5.4375 11.25H18.5625C18.8111 11.25 19.0496 11.3488 19.2254 11.5246C19.4012 11.7004 19.5 11.9389 19.5 12.1875V25.3125C19.5 25.5611 19.4012 25.7996 19.2254 25.9754C19.0496 26.1512 18.8111 26.25 18.5625 26.25H5.4375C5.18886 26.25 4.9504 26.1512 4.77459 25.9754C4.59877 25.7996 4.5 25.5611 4.5 25.3125V12.1875ZM4.5 6.5625C4.5 6.31386 4.59877 6.0754 4.77459 5.89959C4.9504 5.72377 5.18886 5.625 5.4375 5.625H10.125C10.3736 5.625 10.6121 5.72377 10.7879 5.89959C10.9637 6.0754 11.0625 6.31386 11.0625 6.5625C11.0625 6.81114 10.9637 7.0496 10.7879 7.22541C10.6121 7.40123 10.3736 7.5 10.125 7.5H5.4375C5.18886 7.5 4.9504 7.40123 4.77459 7.22541C4.59877 7.0496 4.5 6.81114 4.5 6.5625Z" fill="#FE6637"/>
</svg>
