<svg width="22" height="23" viewBox="0 0 22 23" fill="none" xmlns="http://www.w3.org/2000/svg">
<path d="M9.25394 15.7055C9.38569 15.682 9.50896 15.628 9.61507 15.5493C9.72106 15.4707 9.80693 15.3698 9.86809 15.2553L9.86864 15.2542L16.8379 2.13421C17.1143 1.61423 17.5707 1.23924 18.0998 1.08198C18.6281 0.925007 19.1945 0.994857 19.6769 1.27968C20.1603 1.56523 20.5237 2.04631 20.6781 2.62352C20.8326 3.20112 20.7626 3.81927 20.486 4.3399L11.9467 20.4156C11.9467 20.4156 11.9467 20.4156 11.9467 20.4156C11.7644 20.7588 11.5127 21.0524 11.2119 21.2762C10.9112 21.5 10.5686 21.6487 10.2096 21.7133C9.85073 21.7779 9.48266 21.7571 9.13179 21.6521C8.78083 21.5471 8.45444 21.36 8.17726 21.1027L1.70504 15.0928L1.70502 15.0928C1.28545 14.7032 1.02476 14.1484 0.988676 13.5481C0.952585 12.9477 1.14479 12.3607 1.51626 11.9162C1.88698 11.4725 2.40394 11.2083 2.95047 11.1718C3.49675 11.1353 4.03908 11.3285 4.4577 11.7171L4.79266 11.3564L4.4577 11.7171L8.51851 15.4878L8.51867 15.4879C8.61508 15.5773 8.7311 15.6446 8.859 15.683C8.987 15.7213 9.12213 15.7291 9.25394 15.7055ZM9.25394 15.7055L9.16589 15.2133L9.25395 15.7055C9.25395 15.7055 9.25395 15.7055 9.25394 15.7055Z" fill="white" stroke="#FE6637"/>
</svg>
