<svg width="20" height="22" viewBox="0 0 20 22" fill="none" xmlns="http://www.w3.org/2000/svg">
<path d="M18.8001 5.13333H19.5335V4.82973L19.3193 4.61413L18.8001 5.13333ZM14.4001 0.733333L14.9193 0.214133L14.7037 0H14.4001V0.733333ZM10.0001 6.6L10.5868 6.16C10.4944 6.03687 10.3657 5.94592 10.2188 5.90002C10.0719 5.85413 9.91425 5.85563 9.76823 5.9043C9.62221 5.95297 9.49521 6.04635 9.40522 6.17121C9.31522 6.29607 9.2668 6.44609 9.2668 6.6H10.0001ZM10.4401 7.18667L11.0268 6.74667L10.4401 7.18667ZM17.3335 20.5333H2.6668V22H17.3335V20.5333ZM1.93346 19.8V2.2H0.466797V19.8H1.93346ZM18.0668 5.13333V19.8H19.5335V5.13333H18.0668ZM2.6668 1.46667H14.4001V0H2.6668V1.46667ZM13.8809 1.25253L18.2809 5.65253L19.3193 4.61413L14.9193 0.214133L13.8809 1.25253ZM2.6668 20.5333C2.4723 20.5333 2.28578 20.4561 2.14825 20.3185C2.01073 20.181 1.93346 19.9945 1.93346 19.8H0.466797C0.466797 20.3835 0.698582 20.9431 1.11116 21.3556C1.52374 21.7682 2.08332 22 2.6668 22V20.5333ZM17.3335 22C17.9169 22 18.4765 21.7682 18.8891 21.3556C19.3017 20.9431 19.5335 20.3835 19.5335 19.8H18.0668C18.0668 19.9945 17.9895 20.181 17.852 20.3185C17.7145 20.4561 17.528 20.5333 17.3335 20.5333V22ZM1.93346 2.2C1.93346 2.00551 2.01073 1.81898 2.14825 1.68146C2.28578 1.54393 2.4723 1.46667 2.6668 1.46667V0C2.08332 0 1.52374 0.231785 1.11116 0.644365C0.698582 1.05695 0.466797 1.61652 0.466797 2.2H1.93346ZM7.80013 16.1333C7.41115 16.1333 7.03809 15.9788 6.76304 15.7038C6.48799 15.4287 6.33346 15.0557 6.33346 14.6667H4.8668C4.8668 15.4446 5.17584 16.1907 5.72595 16.7408C6.27606 17.291 7.02216 17.6 7.80013 17.6V16.1333ZM9.2668 14.6667C9.2668 15.0557 9.11227 15.4287 8.83722 15.7038C8.56217 15.9788 8.18911 16.1333 7.80013 16.1333V17.6C8.5781 17.6 9.3242 17.291 9.87431 16.7408C10.4244 16.1907 10.7335 15.4446 10.7335 14.6667H9.2668ZM7.80013 13.2C8.18911 13.2 8.56217 13.3545 8.83722 13.6296C9.11227 13.9046 9.2668 14.2777 9.2668 14.6667H10.7335C10.7335 13.8887 10.4244 13.1426 9.87431 12.5925C9.3242 12.0424 8.5781 11.7333 7.80013 11.7333V13.2ZM7.80013 11.7333C7.02216 11.7333 6.27606 12.0424 5.72595 12.5925C5.17584 13.1426 4.8668 13.8887 4.8668 14.6667H6.33346C6.33346 14.2777 6.48799 13.9046 6.76304 13.6296C7.03809 13.3545 7.41115 13.2 7.80013 13.2V11.7333ZM9.2668 9.53333V14.6667H10.7335V9.53333H9.2668ZM10.7335 10.2667V6.6H9.2668V10.2667H10.7335ZM9.41346 7.04L9.85346 7.62667L11.0268 6.74667L10.5868 6.16L9.41346 7.04ZM9.85346 7.62667C10.4682 8.44636 11.2654 9.11166 12.1819 9.56989C13.0983 10.0281 14.1088 10.2667 15.1335 10.2667V8.8C14.3365 8.8 13.5506 8.61446 12.8378 8.25806C12.125 7.90166 11.505 7.38421 11.0268 6.74667L9.85346 7.62667Z" fill="white"/>
</svg>
