<svg width="18" height="18" viewBox="0 0 18 18" fill="none" xmlns="http://www.w3.org/2000/svg">
<path d="M12 5H12.01" stroke="white" stroke-width="2" stroke-linecap="round" stroke-linejoin="round"/>
<path d="M14 1H4C2.34315 1 1 2.34315 1 4V14C1 15.6569 2.34315 17 4 17H14C15.6569 17 17 15.6569 17 14V4C17 2.34315 15.6569 1 14 1Z" stroke="white" stroke-width="2" stroke-linecap="round" stroke-linejoin="round"/>
<path d="M1 12L5 8C5.45606 7.56116 5.97339 7.33012 6.5 7.33012C7.02661 7.33012 7.54394 7.56116 8 8L13 13" stroke="white" stroke-width="2" stroke-linecap="round" stroke-linejoin="round"/>
<path d="M11 11L12 10C12.4561 9.56116 12.9734 9.33012 13.5 9.33012C14.0266 9.33012 14.5439 9.56116 15 10L17 12" stroke="white" stroke-width="2" stroke-linecap="round" stroke-linejoin="round"/>
</svg>
