<svg width="45" height="45" viewBox="0 0 45 45" fill="none" xmlns="http://www.w3.org/2000/svg">
<path d="M24.0299 22.8694L9.90736 25.2225C9.745 25.2496 9.59263 25.319 9.46558 25.4236C9.33853 25.5283 9.24128 25.6646 9.18361 25.8187L4.31424 38.865C3.84924 40.065 5.10361 41.2087 6.25486 40.6312L40.0049 23.7562C40.2381 23.6393 40.4343 23.4598 40.5713 23.2378C40.7084 23.0158 40.781 22.76 40.781 22.4991C40.781 22.2381 40.7084 21.9823 40.5713 21.7603C40.4343 21.5383 40.2381 21.3588 40.0049 21.2419L6.25486 4.36686C5.10361 3.79124 3.84924 4.93499 4.31424 6.13311L9.18549 19.1794C9.24316 19.3335 9.34041 19.4698 9.46746 19.5745C9.59451 19.6791 9.74687 19.7485 9.90924 19.7756L24.0317 22.1287C24.1198 22.1428 24.2 22.1878 24.2579 22.2557C24.3158 22.3236 24.3476 22.4098 24.3476 22.4991C24.3476 22.5883 24.3158 22.6746 24.2579 22.7424C24.2 22.8103 24.1198 22.8553 24.0317 22.8694H24.0299Z" fill="#D3D9DE"/>
</svg>
