<svg width="75" height="81" viewBox="0 0 75 81" fill="none" xmlns="http://www.w3.org/2000/svg">
<rect y="6" width="75" height="75" rx="37.5" fill="#FE6637"/>
<path d="M8.05082 53.8135L7.70888 54.1783L8.05081 53.8135C6.46225 52.3246 5.48868 50.2187 5.35397 47.9565C5.21926 45.6941 5.93529 43.4722 7.33674 41.7792C8.73735 40.0872 10.7054 39.0638 12.8045 38.9223C14.9032 38.7808 16.9744 39.5315 18.5619 41.0193L31.8036 53.4309L31.8038 53.4311C31.9938 53.609 32.2209 53.7415 32.4695 53.8167C32.7183 53.8919 32.9804 53.9071 33.2361 53.8609C33.4916 53.8148 33.7322 53.7088 33.9404 53.553C34.1485 53.3972 34.3188 53.1959 34.4408 52.9653L34.4413 52.9643L57.1674 9.77733C58.2056 7.80536 59.932 6.36245 61.9589 5.75446C63.9846 5.14682 66.1548 5.41935 67.9953 6.51631C69.8365 7.6142 71.2012 9.45097 71.7787 11.6302C72.3563 13.8099 72.096 16.1438 71.0582 18.1163L43.2125 71.0323C42.5407 72.3088 41.6105 73.4064 40.4919 74.2466C39.3736 75.0866 38.0949 75.6482 36.7501 75.8925C35.4054 76.1367 34.0263 76.0579 32.7132 75.6613C31.4 75.2647 30.1843 74.5598 29.1559 73.5959L8.05082 53.8135Z" fill="white" stroke="#FE6637"/>
</svg>
