<svg width="25" height="13" viewBox="0 0 25 13" fill="none" xmlns="http://www.w3.org/2000/svg">
<path d="M24.5837 7.70825H14.917V5.29158H24.5837V7.70825ZM24.5837 0.458252H14.917V2.87492H24.5837V0.458252ZM14.917 12.5416H24.5837V10.1249H14.917V12.5416ZM12.5003 2.87492V10.1249C12.5003 11.4541 11.4128 12.5416 10.0837 12.5416H2.83366C1.50449 12.5416 0.416992 11.4541 0.416992 10.1249V2.87492C0.416992 1.54575 1.50449 0.458252 2.83366 0.458252H10.0837C11.4128 0.458252 12.5003 1.54575 12.5003 2.87492ZM10.6878 10.1249L8.02949 6.49992L5.85449 9.27909L4.40449 7.46659L2.22949 10.1249H10.6878Z" fill="#FE6637"/>
</svg>
