<svg width="20" height="26" viewBox="0 0 20 26" fill="none" xmlns="http://www.w3.org/2000/svg">
<path d="M8.75 16.5312V20.5C8.75 20.8542 8.87 21.1508 9.11 21.39C9.34917 21.63 9.64583 21.75 10 21.75C10.3542 21.75 10.6513 21.63 10.8913 21.39C11.1304 21.1508 11.25 20.8542 11.25 20.5V16.5312L12.375 17.6562C12.5 17.7812 12.6408 17.875 12.7975 17.9375C12.9533 18 13.1096 18.0258 13.2662 18.015C13.4221 18.005 13.5729 17.9688 13.7188 17.9062C13.8646 17.8438 14 17.75 14.125 17.625C14.3542 17.375 14.4742 17.0833 14.485 16.75C14.495 16.4167 14.375 16.125 14.125 15.875L10.875 12.625C10.75 12.5 10.6146 12.4113 10.4688 12.3588C10.3229 12.3071 10.1667 12.2812 10 12.2812C9.83333 12.2812 9.67708 12.3071 9.53125 12.3588C9.38542 12.4113 9.25 12.5 9.125 12.625L5.875 15.875C5.625 16.125 5.50542 16.4167 5.51625 16.75C5.52625 17.0833 5.65625 17.375 5.90625 17.625C6.15625 17.8542 6.44792 17.9742 6.78125 17.985C7.11458 17.995 7.40625 17.875 7.65625 17.625L8.75 16.5312ZM2.5 25.5C1.8125 25.5 1.22417 25.2554 0.735 24.7663C0.245 24.2763 0 23.6875 0 23V3C0 2.3125 0.245 1.72375 0.735 1.23375C1.22417 0.744583 1.8125 0.5 2.5 0.5H11.4688C11.8021 0.5 12.12 0.5625 12.4225 0.6875C12.7242 0.8125 12.9896 0.989583 13.2188 1.21875L19.2812 7.28125C19.5104 7.51042 19.6875 7.77583 19.8125 8.0775C19.9375 8.38 20 8.69792 20 9.03125V23C20 23.6875 19.7554 24.2763 19.2663 24.7663C18.7763 25.2554 18.1875 25.5 17.5 25.5H2.5ZM11.25 8V3H2.5V23H17.5V9.25H12.5C12.1458 9.25 11.8492 9.13 11.61 8.89C11.37 8.65083 11.25 8.35417 11.25 8ZM2.5 3V9.25V3V23V3Z" fill="#FE6637"/>
</svg>
