<svg width="22" height="23" viewBox="0 0 22 23" fill="none" xmlns="http://www.w3.org/2000/svg">
<path d="M8.60643 20.2882L10.7962 21.9153C11.1358 22.2204 11.5601 22.3729 12.0694 22.3729C12.2731 22.3729 12.6126 22.3051 13.0879 22.1695C13.8688 21.7628 14.2592 21.1017 14.2592 20.1865V12.5085L21.3379 3.71191C21.9151 3.00005 21.983 2.23733 21.5416 1.42377C21.0324 0.576317 20.3873 0.152588 19.6064 0.152588H2.39347C1.4089 0.152588 0.763841 0.542418 0.458285 1.32208C0.118779 2.20344 0.18668 2.96615 0.661989 3.61021L7.74069 12.5085V18.5594C7.74069 19.3051 8.02927 19.8814 8.60643 20.2882ZM2.39347 2.28818H19.6064L12.0694 11.6441V20.1865L9.93051 18.5594V11.6441L2.39347 2.28818Z" fill="#FE6637"/>
</svg>
