<svg width="17" height="17" viewBox="0 0 17 17" fill="none" xmlns="http://www.w3.org/2000/svg">
<path d="M8.5 0.78125C6.97338 0.78125 5.48104 1.23395 4.2117 2.08209C2.94235 2.93024 1.95302 4.13574 1.36881 5.54616C0.784594 6.95658 0.631737 8.50856 0.929567 10.0059C1.2274 11.5031 1.96254 12.8785 3.04202 13.958C4.12151 15.0375 5.49686 15.7726 6.99415 16.0704C8.49144 16.3683 10.0434 16.2154 11.4538 15.6312C12.8643 15.047 14.0698 14.0576 14.9179 12.7883C15.7661 11.519 16.2188 10.0266 16.2188 8.5C16.2168 6.45346 15.4029 4.49131 13.9558 3.04419C12.5087 1.59707 10.5465 0.783215 8.5 0.78125ZM8.5 15.0312C7.20824 15.0312 5.94549 14.6482 4.87144 13.9305C3.79738 13.2129 2.96025 12.1928 2.46592 10.9994C1.97158 9.80597 1.84224 8.49275 2.09425 7.22582C2.34626 5.95888 2.9683 4.79512 3.88171 3.88171C4.79512 2.9683 5.95888 2.34626 7.22582 2.09425C8.49276 1.84224 9.80597 1.97158 10.9994 2.46591C12.1928 2.96025 13.2129 3.79737 13.9305 4.87143C14.6482 5.94549 15.0313 7.20824 15.0313 8.5C15.0293 10.2316 14.3405 11.8917 13.1161 13.1161C11.8917 14.3405 10.2316 15.0293 8.5 15.0312ZM9.39063 12.3594C9.39063 12.5355 9.33839 12.7077 9.24053 12.8542C9.14267 13.0006 9.00357 13.1148 8.84083 13.1822C8.67809 13.2496 8.49902 13.2673 8.32625 13.2329C8.15349 13.1985 7.99479 13.1137 7.87024 12.9891C7.74568 12.8646 7.66086 12.7059 7.62649 12.5331C7.59213 12.3604 7.60976 12.1813 7.67717 12.0185C7.74458 11.8558 7.85874 11.7167 8.0052 11.6188C8.15166 11.521 8.32385 11.4688 8.5 11.4688C8.73621 11.4688 8.96275 11.5626 9.12977 11.7296C9.29679 11.8966 9.39063 12.1232 9.39063 12.3594ZM11.1719 7.01562C11.1719 7.62106 10.9663 8.20855 10.5887 8.68184C10.2112 9.15513 9.68405 9.48616 9.09375 9.6207V9.6875C9.09375 9.84497 9.0312 9.996 8.91985 10.1073C8.8085 10.2187 8.65748 10.2812 8.5 10.2812C8.34253 10.2812 8.19151 10.2187 8.08016 10.1073C7.96881 9.996 7.90625 9.84497 7.90625 9.6875V9.09375C7.90625 8.93628 7.96881 8.78525 8.08016 8.6739C8.19151 8.56256 8.34253 8.5 8.5 8.5C8.79358 8.5 9.08057 8.41294 9.32468 8.24984C9.56878 8.08673 9.75904 7.85491 9.87139 7.58367C9.98374 7.31244 10.0131 7.01398 9.95586 6.72604C9.89858 6.4381 9.75721 6.17361 9.54961 5.96601C9.34202 5.75842 9.07753 5.61705 8.78959 5.55977C8.50165 5.5025 8.20319 5.53189 7.93196 5.64424C7.66072 5.75659 7.4289 5.94685 7.26579 6.19095C7.10269 6.43505 7.01563 6.72204 7.01563 7.01562C7.01563 7.1731 6.95307 7.32412 6.84172 7.43547C6.73037 7.54682 6.57935 7.60938 6.42188 7.60938C6.26441 7.60938 6.11338 7.54682 6.00203 7.43547C5.89068 7.32412 5.82813 7.1731 5.82813 7.01562C5.82813 6.307 6.10963 5.6274 6.6107 5.12632C7.11178 4.62525 7.79138 4.34375 8.5 4.34375C9.20863 4.34375 9.88823 4.62525 10.3893 5.12632C10.8904 5.6274 11.1719 6.307 11.1719 7.01562Z" fill="#7A7777"/>
</svg>
