<svg width="30" height="30" viewBox="0 0 30 30" fill="none" xmlns="http://www.w3.org/2000/svg">
<rect x="4.41992" y="4.41943" width="21.2132" height="21.2132" rx="6" fill="#FE6637"/>
<rect y="15" width="21.2132" height="21.2132" rx="6" transform="rotate(-45 0 15)" fill="#FE6637"/>
<path d="M12.3747 18.7384L9.28108 15.6448C9.20018 15.5629 9.10384 15.4979 8.99763 15.4536C8.89142 15.4092 8.77746 15.3863 8.66236 15.3863C8.54725 15.3863 8.43329 15.4092 8.32709 15.4536C8.22088 15.4979 8.12453 15.5629 8.04364 15.6448C7.96176 15.7257 7.89674 15.8221 7.85237 15.9283C7.808 16.0345 7.78516 16.1484 7.78516 16.2635C7.78516 16.3787 7.808 16.4926 7.85237 16.5988C7.89674 16.705 7.96176 16.8014 8.04364 16.8823L11.7471 20.5857C12.0918 20.9305 12.6487 20.9305 12.9934 20.5857L22.3626 11.2254C22.4444 11.1445 22.5094 11.0482 22.5538 10.942C22.5982 10.8358 22.621 10.7218 22.621 10.6067C22.621 10.4916 22.5982 10.3776 22.5538 10.2714C22.5094 10.1652 22.4444 10.0689 22.3626 9.98797C22.2817 9.90609 22.1853 9.84108 22.0791 9.79671C21.9729 9.75234 21.8589 9.72949 21.7438 9.72949C21.6287 9.72949 21.5148 9.75234 21.4086 9.79671C21.3024 9.84108 21.206 9.90609 21.1251 9.98797L12.3747 18.7384Z" fill="white"/>
</svg>
