<svg width="20" height="20" viewBox="0 0 20 20" fill="none" xmlns="http://www.w3.org/2000/svg">
<path d="M11.0508 7.79L8.00078 5.5V14.5L11.0508 12.21L14.0008 10L11.0508 7.79ZM11.0508 7.79L8.00078 5.5V14.5L11.0508 12.21L14.0008 10L11.0508 7.79ZM11.0508 7.79L8.00078 5.5V14.5L11.0508 12.21L14.0008 10L11.0508 7.79ZM9.00078 2.07V0.0500031C6.99078 0.250003 5.16078 1.05 3.68078 2.26L5.10078 3.69C6.23073 2.80789 7.57839 2.24809 9.00078 2.07ZM3.69078 5.1L2.26078 3.68C1.01559 5.19659 0.246687 7.04753 0.0507812 9H2.07078C2.25078 7.54 2.83078 6.21 3.69078 5.1ZM2.07078 11H0.0507812C0.250781 13.01 1.05078 14.84 2.26078 16.32L3.69078 14.89C2.80714 13.7647 2.24705 12.4198 2.07078 11ZM3.68078 17.74C5.19836 18.9835 7.04878 19.7522 9.00078 19.95V17.93C7.57839 17.7519 6.23073 17.1921 5.10078 16.31L3.68078 17.74ZM20.0008 10C20.0008 15.16 16.0808 19.42 11.0508 19.95V17.93C14.9708 17.41 18.0008 14.05 18.0008 10C18.0008 5.95 14.9708 2.59 11.0508 2.07V0.0500031C16.0808 0.580003 20.0008 4.84 20.0008 10Z" fill="white"/>
</svg>
