<svg width="17" height="17" viewBox="0 0 17 17" fill="none" xmlns="http://www.w3.org/2000/svg">
<path fill-rule="evenodd" clip-rule="evenodd" d="M0.111328 8.49997C0.111328 6.27504 0.995181 4.14123 2.56845 2.56796C4.14172 0.994693 6.27553 0.11084 8.50046 0.11084C10.7254 0.11084 12.8592 0.994693 14.4325 2.56796C16.0057 4.14123 16.8896 6.27504 16.8896 8.49997C16.8896 10.7249 16.0057 12.8587 14.4325 14.432C12.8592 16.0053 10.7254 16.8891 8.50046 16.8891C6.27553 16.8891 4.14172 16.0053 2.56845 14.432C0.995181 12.8587 0.111328 10.7249 0.111328 8.49997ZM8.50046 1.31417C6.59467 1.31417 4.76693 2.07125 3.41933 3.41885C2.07173 4.76644 1.31466 6.59418 1.31466 8.49997C1.31466 10.4058 2.07173 12.2335 3.41933 13.5811C4.76693 14.9287 6.59467 15.6858 8.50046 15.6858C10.4063 15.6858 12.234 14.9287 13.5816 13.5811C14.9292 12.2335 15.6863 10.4058 15.6863 8.49997C15.6863 6.59418 14.9292 4.76644 13.5816 3.41885C12.234 2.07125 10.4063 1.31417 8.50046 1.31417ZM11.4822 5.51951C11.6009 5.63827 11.6676 5.79934 11.6676 5.96727C11.6676 6.13521 11.6009 6.29627 11.4822 6.41504L9.39599 8.49997L11.4822 10.5849C11.6011 10.7038 11.6679 10.8651 11.6679 11.0333C11.6679 11.2015 11.6011 11.3628 11.4822 11.4817C11.3633 11.6006 11.202 11.6674 11.0338 11.6674C10.8656 11.6674 10.7043 11.6006 10.5854 11.4817L8.50046 9.39551L6.41553 11.4817C6.35664 11.5406 6.28674 11.5873 6.2098 11.6192C6.13286 11.651 6.0504 11.6674 5.96713 11.6674C5.88385 11.6674 5.80139 11.651 5.72446 11.6192C5.64752 11.5873 5.57761 11.5406 5.51873 11.4817C5.45984 11.4228 5.41313 11.3529 5.38127 11.276C5.3494 11.199 5.33299 11.1166 5.33299 11.0333C5.33299 10.95 5.3494 10.8676 5.38127 10.7906C5.41313 10.7137 5.45984 10.6438 5.51873 10.5849L7.60493 8.49997L5.51873 6.41504C5.39981 6.29612 5.33299 6.13482 5.33299 5.96664C5.33299 5.79846 5.39981 5.63716 5.51873 5.51824C5.63765 5.39932 5.79895 5.33251 5.96713 5.33251C6.13531 5.33251 6.29661 5.39932 6.41553 5.51824L8.50046 7.60444L10.5854 5.51824C10.6442 5.45926 10.7141 5.41247 10.7911 5.38054C10.868 5.34861 10.9505 5.33217 11.0338 5.33217C11.1171 5.33217 11.1996 5.34861 11.2765 5.38054C11.3535 5.41247 11.4234 5.45926 11.4822 5.51824V5.51951Z" fill="black" fill-opacity="0.6"/>
</svg>
