<svg width="30" height="30" viewBox="0 0 30 30" fill="none" xmlns="http://www.w3.org/2000/svg">
<circle cx="15" cy="15" r="15" fill="#FF0000"/>
<path d="M18.9837 7.5C17.2688 7.5 15.8035 8.72414 14.9984 9.5681C14.1933 8.72414 12.7312 7.5 11.0171 7.5C8.06264 7.5 6 9.56236 6 12.5146C6 15.7675 8.56173 17.87 11.04 19.9037C12.21 20.8648 13.4209 21.8579 14.3495 22.9591C14.5058 23.1435 14.7349 23.25 14.9755 23.25H15.0229C15.2643 23.25 15.4925 23.1427 15.648 22.9591C16.5783 21.8579 17.7884 20.864 18.9592 19.9037C21.4366 17.8708 24 15.7683 24 12.5146C24 9.56236 21.9374 7.5 18.9837 7.5Z" fill="#E0E0E0"/>
</svg>
