<svg width="30" height="30" viewBox="0 0 30 30" fill="none" xmlns="http://www.w3.org/2000/svg">
<circle cx="15" cy="15" r="15" fill="#6BC432"/>
<g clip-path="url(#clip0_3_10003)">
<path fill-rule="evenodd" clip-rule="evenodd" d="M17.4852 6.79061C17.6394 6.73987 17.8064 6.7366 17.9627 6.78124C18.119 6.82588 18.2568 6.91621 18.357 7.03961L23.8351 13.7896C23.942 13.9212 24 14.0833 24 14.2501C24 14.4169 23.942 14.5789 23.8351 14.7106L18.357 21.4605C18.2568 21.5838 18.119 21.674 17.9627 21.7186C17.8065 21.7631 17.6396 21.7598 17.4854 21.7091C17.3313 21.6584 17.1974 21.5628 17.1027 21.4357C17.0079 21.3086 16.957 21.1562 16.9569 21V18.0075C12.7473 18.0915 10.7251 18.8573 9.70931 19.6898C8.74359 20.481 8.56672 21.4118 8.38281 22.3868L8.33507 22.638C8.29995 22.8178 8.19749 22.9791 8.04697 23.0915C7.89644 23.204 7.70823 23.2598 7.51774 23.2486C7.32725 23.2373 7.14761 23.1598 7.01262 23.0305C6.87763 22.9012 6.79659 22.7291 6.78476 22.5465C6.65015 20.4855 6.85206 17.499 8.37107 15.0008C9.84548 12.5761 12.5 10.695 16.9569 10.5V7.5001C16.9569 7.34384 17.0077 7.19147 17.1024 7.06427C17.1972 6.93707 17.3309 6.84139 17.4852 6.79061Z" fill="#E0E0E0"/>
</g>
<defs>
<clipPath id="clip0_3_10003">
<rect width="18" height="18" fill="white" transform="translate(6 6)"/>
</clipPath>
</defs>
</svg>
