<svg width="21" height="22" viewBox="0 0 21 22" fill="none" xmlns="http://www.w3.org/2000/svg">
<path d="M7.45172 21.6251C6.52227 21.6206 5.60299 21.4313 4.74738 21.0682C3.89178 20.7051 3.11694 20.1754 2.46797 19.5101C1.82387 18.8996 1.30647 18.1681 0.945372 17.3574C0.584279 16.5468 0.386582 15.6729 0.363593 14.7858C0.340605 13.8986 0.492777 13.0156 0.811402 12.1874C1.13003 11.3591 1.60885 10.6018 2.22047 9.9588L10.5005 1.60005C10.9426 1.15869 11.4697 0.811513 12.0497 0.579485C12.6298 0.347457 13.2509 0.235391 13.8755 0.250053C14.5445 0.252331 15.2064 0.387797 15.8226 0.648549C16.4387 0.909302 16.9968 1.29012 17.4642 1.7688C18.3946 2.66457 18.9341 3.89113 18.9657 5.18225C18.9973 6.47337 18.5184 7.72485 17.633 8.66505L9.30797 17.0238C9.04132 17.2923 8.72402 17.5051 8.37447 17.6499C8.02492 17.7948 7.65009 17.8687 7.27172 17.8676C6.86298 17.8681 6.45827 17.7867 6.08149 17.6283C5.70471 17.4699 5.36349 17.2375 5.07797 16.9451C4.50729 16.3925 4.17771 15.6371 4.16086 14.8429C4.14401 14.0488 4.44124 13.2801 4.98797 12.7038L12.6717 4.9863C12.8904 4.84107 13.153 4.77688 13.414 4.80486C13.675 4.83283 13.918 4.95121 14.101 5.13948C14.2839 5.32776 14.3952 5.57408 14.4157 5.8358C14.4361 6.09751 14.3644 6.35814 14.213 6.57255L6.52922 14.2901C6.40109 14.4444 6.33873 14.6429 6.35556 14.8428C6.37239 15.0427 6.46708 15.228 6.61922 15.3588C6.77752 15.5182 6.99092 15.6108 7.21547 15.6176C7.29865 15.6187 7.38123 15.6035 7.45847 15.5726C7.53571 15.5417 7.60606 15.4958 7.66547 15.4376L15.9792 7.0788C16.4459 6.56038 16.6898 5.87914 16.6582 5.18233C16.6266 4.48553 16.3221 3.82914 15.8105 3.35505C15.3353 2.86167 14.689 2.5692 14.0047 2.53781C13.3204 2.50642 12.6501 2.7385 12.1317 3.1863L3.81797 11.5001C3.41369 11.9343 3.09927 12.4441 2.8928 13.0003C2.68632 13.5565 2.59187 14.1481 2.61487 14.7409C2.63788 15.3337 2.77788 15.9162 3.02683 16.4547C3.27578 16.9932 3.62876 17.4772 4.06547 17.8788C4.50341 18.3328 5.02742 18.6949 5.6069 18.9441C6.18638 19.1933 6.80971 19.3245 7.44047 19.3301C7.98431 19.3345 8.52367 19.2314 9.02757 19.0267C9.53146 18.8221 9.98996 18.5199 10.3767 18.1376L18.6905 9.7788C18.7946 9.67391 18.9184 9.59056 19.0548 9.53351C19.1912 9.47646 19.3374 9.44683 19.4852 9.4463C19.6331 9.44578 19.7795 9.47438 19.9163 9.53046C20.0531 9.58655 20.1775 9.66902 20.2823 9.77318C20.3872 9.87733 20.4706 10.0011 20.5276 10.1375C20.5847 10.2739 20.6143 10.4201 20.6148 10.568C20.6154 10.7158 20.5868 10.8622 20.5307 10.999C20.4746 11.1358 20.3921 11.2602 20.288 11.3651L11.9742 19.7238C11.3839 20.3245 10.6802 20.8019 9.90379 21.1283C9.12741 21.4547 8.29391 21.6236 7.45172 21.6251Z" fill="#A8ADB8"/>
</svg>
