<svg width="35" height="35" viewBox="0 0 35 35" fill="none" xmlns="http://www.w3.org/2000/svg">
<path d="M18.8925 17.8365L6.02538 19.9805C5.87745 20.0052 5.73863 20.0684 5.62287 20.1638C5.50712 20.2591 5.41851 20.3833 5.36597 20.5238L0.929425 32.4103C0.505759 33.5037 1.64863 34.5457 2.69755 34.0196L33.4475 18.6446C33.6601 18.5381 33.8388 18.3745 33.9637 18.1722C34.0886 17.9699 34.1547 17.7369 34.1547 17.4991C34.1547 17.2614 34.0886 17.0284 33.9637 16.8261C33.8388 16.6238 33.6601 16.4602 33.4475 16.3537L2.69755 0.978708C1.64863 0.45425 0.505759 1.49633 0.929425 2.58796L5.36767 14.4745C5.42022 14.615 5.50883 14.7392 5.62458 14.8345C5.74034 14.9299 5.87916 14.9931 6.02709 15.0178L18.8943 17.1618C18.9745 17.1746 19.0476 17.2156 19.1003 17.2774C19.1531 17.3392 19.1821 17.4179 19.1821 17.4991C19.1821 17.5804 19.1531 17.659 19.1003 17.7209C19.0476 17.7827 18.9745 17.8237 18.8943 17.8365H18.8925Z" fill="#D3D9DE"/>
</svg>
