<svg width="19" height="19" viewBox="0 0 19 19" fill="none" xmlns="http://www.w3.org/2000/svg">
<path d="M2.80371 5.79895C2.80371 4.1421 4.14686 2.79895 5.80371 2.79895H13.2387C14.8956 2.79895 16.2387 4.1421 16.2387 5.79895V13.234C16.2387 14.8908 14.8956 16.234 13.2387 16.234H5.80371C4.14686 16.234 2.80371 14.8908 2.80371 13.234V5.79895Z" fill="#FE6637"/>
<path d="M2.12132 11.6213C0.949748 10.4497 0.949748 8.55025 2.12132 7.37868L7.37868 2.12132C8.55025 0.949747 10.4497 0.949747 11.6213 2.12132L16.8787 7.37868C18.0503 8.55025 18.0503 10.4497 16.8787 11.6213L11.6213 16.8787C10.4497 18.0503 8.55025 18.0503 7.37868 16.8787L2.12132 11.6213Z" fill="#FE6637"/>
<path d="M7.84224 11.8676L5.88296 9.90837C5.83173 9.85651 5.77071 9.81533 5.70345 9.78723C5.63618 9.75913 5.56401 9.74466 5.49111 9.74466C5.41821 9.74466 5.34603 9.75913 5.27877 9.78723C5.2115 9.81533 5.15049 9.85651 5.09925 9.90837C5.04739 9.9596 5.00622 10.0206 4.97812 10.0879C4.95002 10.1551 4.93555 10.2273 4.93555 10.3002C4.93555 10.3731 4.95002 10.4453 4.97812 10.5126C5.00622 10.5798 5.04739 10.6408 5.09925 10.6921L7.44478 13.0376C7.6631 13.2559 8.01577 13.2559 8.23409 13.0376L14.1679 7.1094C14.2198 7.05817 14.2609 6.99715 14.289 6.92989C14.3171 6.86262 14.3316 6.79045 14.3316 6.71755C14.3316 6.64465 14.3171 6.57247 14.289 6.50521C14.2609 6.43794 14.2198 6.37693 14.1679 6.32569C14.1167 6.27383 14.0556 6.23266 13.9884 6.20456C13.9211 6.17646 13.8489 6.16199 13.776 6.16199C13.7031 6.16199 13.631 6.17646 13.5637 6.20456C13.4964 6.23266 13.4354 6.27383 13.3842 6.32569L7.84224 11.8676Z" fill="white"/>
</svg>
